<?xml version="1.0" encoding="utf-8"?>
<!-- Generator: Adobe Illustrator 27.3.1, SVG Export Plug-In . SVG Version: 6.00 Build 0)  -->
<svg version="1.1" id="Layer_1" xmlns="http://www.w3.org/2000/svg" xmlns:xlink="http://www.w3.org/1999/xlink" x="0px" y="0px"
	 viewBox="0 0 512 512" style="enable-background:new 0 0 512 512;" xml:space="preserve">
<style type="text/css">
	.st0{fill:#FFE100;}
</style>
<path class="st0" d="M214.7,311l73.3-55V96H128v176l-86.7,64.6C1.9,366.2-12.5,421,12.1,463.7C30.4,495.2,63.3,512,96.1,512
	c20,0,40.2-6.2,57.5-19.2l21.9-16.4C145.6,421,161.9,350.6,214.7,311L214.7,311z M288,32c0-11,3.1-21.3,8-30.4
	c-2.6-0.7-5.2-1.6-8-1.6H160c-17.7,0-32,14.3-32,32v32h160V32z M480,0H352c-17.7,0-32,14.3-32,32v32h192V32C512,14.3,497.7,0,480,0z
	 M320,272l-86.1,64.6c-39.4,29.6-53.9,84.4-29.2,127.1c18.2,31.6,50.6,48.3,83.4,48.3c20,0,40.2-6.2,57.5-19.2l115.2-86.4
	C493,382.2,512,344.3,512,304V96H320V272z"/>
</svg>
